<svg xmlns="http://www.w3.org/2000/svg" viewBox="0 0 640.06 619.66"><defs><style>.cls-1{font-size:38px;fill:#ffd3ff;font-family:CourierNewPS-BoldMT, Courier New;font-weight:700;}</style></defs><g id="Layer_2" data-name="Layer 2"><g id="Layer_1-2" data-name="Layer 1"><text class="cls-1" transform="translate(263.09 328.85) rotate(148.52)">p</text><text class="cls-1" transform="translate(247.05 340.19) rotate(-165.98)">o</text><text class="cls-1" transform="matrix(-0.45, -0.89, 0.89, -0.45, 227.98, 336.86)">r</text><text class="cls-1" transform="matrix(0.2, -0.98, 0.98, 0.2, 218.54, 319.52)">t</text><text class="cls-1" transform="matrix(0.72, -0.69, 0.69, 0.72, 221.8, 299.72)">a</text><text class="cls-1" transform="translate(236.32 285.48) rotate(-16.18)">l</text><text class="cls-1" transform="translate(256.37 279.52) rotate(4.15)">:</text><text class="cls-1" transform="translate(277.56 280.89) rotate(20.97)"> </text><text class="cls-1" transform="translate(297.53 288.34) rotate(36.74)">b</text><text class="cls-1" transform="translate(314.74 300.88) rotate(52.75)">a</text><text class="cls-1" transform="translate(327.78 317.62) rotate(69.75)">c</text><text class="cls-1" transform="translate(335.31 337.51) rotate(85.95)">k</text><text class="cls-1" transform="translate(337.03 358.77) rotate(101.67)"> </text><text class="cls-1" transform="translate(333 379.65) rotate(118.11)">t</text><text class="cls-1" transform="translate(323.09 398.5) rotate(134.19)">o</text><text class="cls-1" transform="matrix(-0.85, 0.53, -0.53, -0.85, 308.2, 413.93)"> </text><text class="cls-1" transform="translate(289.8 425.44) rotate(159.17)">S</text><text class="cls-1" transform="matrix(-0.98, 0.2, -0.2, -0.98, 269.33, 433.25)">o</text><text class="cls-1" transform="translate(247.77 437.77) rotate(176.05)">m</text><text class="cls-1" transform="translate(225.83 439.44) rotate(-175.9)">e</text><text class="cls-1" transform="translate(204.16 438.14) rotate(-164.28)"> </text><text class="cls-1" transform="matrix(-0.86, -0.5, 0.5, -0.86, 183.5, 432.53)">d</text><text class="cls-1" transform="translate(164.84 421.72) rotate(-137.15)">i</text><text class="cls-1" transform="translate(148.83 406.85) rotate(-127.49)">a</text><text class="cls-1" transform="matrix(-0.51, -0.86, 0.86, -0.51, 135.41, 389.3)">r</text><text class="cls-1" transform="matrix(-0.42, -0.91, 0.91, -0.42, 124.13, 370.15)">i</text><text class="cls-1" transform="matrix(-0.3, -0.95, 0.95, -0.3, 114.85, 350.11)">e</text><text class="cls-1" transform="translate(108.15 329.27) rotate(-98.13)">s</text><text class="cls-1" transform="matrix(0.07, -1, 1, 0.07, 104.87, 307.87)"> </text><text class="cls-1" transform="matrix(0.31, -0.95, 0.95, 0.31, 106.18, 286.55)">o</text><text class="cls-1" transform="translate(112.85 266.13) rotate(-57.5)">f</text><text class="cls-1" transform="matrix(0.68, -0.73, 0.73, 0.68, 124.58, 247.8)"> </text><text class="cls-1" transform="matrix(0.76, -0.65, 0.65, 0.76, 139.69, 231.64)">l</text><text class="cls-1" transform="translate(156.67 217.14) rotate(-35.51)">i</text><text class="cls-1" transform="translate(174.39 204.18) rotate(-26.95)">g</text><text class="cls-1" transform="matrix(0.97, -0.25, 0.25, 0.97, 193.6, 194.25)">h</text><text class="cls-1" transform="translate(215.08 188.95) rotate(-8.19)">t</text><text class="cls-1" transform="translate(238.41 185.92) rotate(-11.06)">,</text><text class="cls-1" transform="translate(261.41 181.22) rotate(-14.25)"> </text><text class="cls-1" transform="translate(283.32 175.5) rotate(-12.61)">o</text><text class="cls-1" transform="matrix(0.99, -0.11, 0.11, 0.99, 304.92, 170.48)">r</text><text class="cls-1" transform="translate(326.58 167.88) rotate(3.66)"> </text><text class="cls-1" transform="translate(348.35 169.2) rotate(13.89)">n</text><text class="cls-1" transform="translate(369.58 174.41) rotate(23.18)">o</text><text class="cls-1" transform="translate(389.81 183.03) rotate(31.59)">t</text><text class="cls-1" transform="matrix(0.77, 0.63, -0.63, 0.77, 408.59, 194.54)">-</text><text class="cls-1" transform="translate(425.67 208.48) rotate(46.69)">l</text><text class="cls-1" transform="matrix(0.59, 0.81, -0.81, 0.59, 440.84, 224.57)">i</text><text class="cls-1" transform="translate(454 242.44) rotate(59.64)">g</text><text class="cls-1" transform="matrix(0.42, 0.91, -0.91, 0.42, 465.26, 261.67)">h</text><text class="cls-1" transform="matrix(0.35, 0.94, -0.94, 0.35, 474.73, 281.89)">t</text><text class="cls-1" transform="matrix(0.29, 0.96, -0.96, 0.29, 482.62, 302.89)">.</text><text class="cls-1" transform="translate(489.13 324.4) rotate(76.23)">g</text><text class="cls-1" transform="matrix(0.18, 0.98, -0.98, 0.18, 494.61, 346.16)">e</text><text class="cls-1" transform="translate(498.85 367.55) rotate(90.16)">t</text><text class="cls-1" transform="translate(499.26 388.76) rotate(107.66)">t</text><text class="cls-1" transform="translate(492.61 409.04) rotate(122.55)">i</text><text class="cls-1" transform="matrix(-0.62, 0.79, -0.79, -0.62, 480.35, 427.59)">n</text><text class="cls-1" transform="matrix(-0.62, 0.79, -0.79, -0.62, 466.31, 445.55)">g</text><text class="cls-1" transform="translate(452.26 463.51) rotate(128.04)"> <tspan x="22.82" y="0">l</tspan></text><text class="cls-1" transform="translate(424.16 499.44) rotate(128.13)">o</text><text class="cls-1" transform="translate(410.37 517.25) rotate(130.77)">s</text><text class="cls-1" transform="matrix(-0.73, 0.68, -0.68, -0.73, 396.03, 534.15)">t</text><text class="cls-1" transform="matrix(-0.84, 0.54, -0.54, -0.84, 380.11, 549.08)"> </text><text class="cls-1" transform="matrix(-0.92, 0.4, -0.4, -0.92, 361.74, 560.97)">i</text><text class="cls-1" transform="translate(341.48 569.76) rotate(163.75)">n</text><text class="cls-1" transform="translate(320.11 575.95) rotate(169.03)"> </text><text class="cls-1" transform="translate(298.08 580.16) rotate(172.46)">p</text><text class="cls-1" transform="translate(275.7 583.12) rotate(174.86)">a</text><text class="cls-1" transform="matrix(-1, 0.05, -0.05, -1, 253.21, 585.15)">g</text><text class="cls-1" transform="translate(230.69 586.26) rotate(179.52)">e</text><text class="cls-1" transform="translate(208.15 586.45) rotate(-178.15)">s</text><text class="cls-1" transform="matrix(-1, -0.07, 0.07, -1, 185.58, 585.72)">,</text><text class="cls-1" transform="matrix(-0.99, -0.11, 0.11, -0.99, 163.09, 584.08)">g</text><text class="cls-1" transform="translate(140.88 581.8) rotate(-168.57)">e</text><text class="cls-1" transform="matrix(-0.92, -0.4, 0.4, -0.92, 119.55, 577.9)">t</text><text class="cls-1" transform="translate(100 569.74) rotate(-139.24)">t</text><text class="cls-1" transform="translate(83.81 555.87) rotate(-123.76)">i</text><text class="cls-1" transform="translate(71.79 537.8) rotate(-112.75)">n</text><text class="cls-1" transform="matrix(-0.27, -0.96, 0.96, -0.27, 63.31, 517.38)">g</text><text class="cls-1" transform="translate(57.29 495.8) rotate(-101.98)"> </text><text class="cls-1" transform="translate(52.66 473.53) rotate(-101.23)">l<tspan x="22.78" y="0">o</tspan><tspan x="45.59" y="0">s</tspan></text><text class="cls-1" transform="translate(39.33 406.47) rotate(-101.15)">t</text><text class="cls-1" transform="translate(34.84 384.32) rotate(-98.9)"> </text><text class="cls-1" transform="translate(31.27 362.37) rotate(-93.52)">o</text><text class="cls-1" transform="translate(29.8 340.42) rotate(-85.37)">n</text><text class="cls-1" transform="translate(31.59 318.44) rotate(-77.84)"> </text><text class="cls-1" transform="translate(36.32 296.7) rotate(-72.27)">l</text><text class="cls-1" transform="translate(43.19 275.36) rotate(-68.63)">a</text><text class="cls-1" transform="translate(51.47 254.33) rotate(-66.79)">n</text><text class="cls-1" transform="translate(60.42 233.48) rotate(-65.57)">d</text><text class="cls-1" transform="translate(69.81 212.83) rotate(-64.56)">,</text><text class="cls-1" transform="matrix(0.44, -0.9, 0.9, 0.44, 79.58, 192.31)"> </text><text class="cls-1" transform="translate(89.63 171.92) rotate(-63.19)">g</text><text class="cls-1" transform="translate(99.91 151.6) rotate(-62.83)">e</text><text class="cls-1" transform="matrix(0.46, -0.89, 0.89, 0.46, 110.33, 131.31)">t</text><text class="cls-1" transform="translate(120.51 111.16) rotate(-60.63)">t</text><text class="cls-1" transform="translate(131.1 91.8) rotate(-53.08)">i</text><text class="cls-1" transform="translate(144.02 74.38) rotate(-41.64)">n</text><text class="cls-1" transform="translate(160.23 59.89) rotate(-30.8)">g</text><text class="cls-1" transform="matrix(0.93, -0.37, 0.37, 0.93, 179.03, 48.67)"> </text><text class="cls-1" transform="matrix(0.97, -0.25, 0.25, 0.97, 199.55, 40.56)">l</text><text class="cls-1" transform="matrix(0.99, -0.15, 0.15, 0.99, 221.07, 35.13)">o</text><text class="cls-1" transform="translate(243.19 31.88) rotate(-3.94)">s</text><text class="cls-1" transform="translate(265.59 30.35) rotate(-0.48)">t</text><text class="cls-1" transform="translate(288.14 30.22) rotate(1.89)"> </text><text class="cls-1" transform="matrix(1, 0.06, -0.06, 1, 310.76, 30.96)">o</text><text class="cls-1" transform="translate(333.37 32.31) rotate(4.96)">n</text><text class="cls-1" transform="matrix(0.99, 0.11, -0.11, 0.99, 355.94, 34.27)"> </text><text class="cls-1" transform="matrix(0.99, 0.14, -0.14, 0.99, 378.44, 36.83)">t</text><text class="cls-1" transform="translate(400.54 39.75) rotate(13.04)">h</text><text class="cls-1" transform="translate(421.82 44.33) rotate(23.83)">e</text><text class="cls-1" transform="matrix(0.75, 0.66, -0.66, 0.75, 441.43, 52.48)"> </text><text class="cls-1" transform="translate(457.3 66.92) rotate(54.36)">c</text><text class="cls-1" transform="translate(471.41 88.23) rotate(44.81)">o</text><text class="cls-1" transform="translate(497.81 107.92) rotate(6.88)">m</text><text class="cls-1" transform="translate(519.98 109.25) rotate(15.23)">p</text><text class="cls-1" transform="translate(540.13 114.54) rotate(36.73)">u</text><text class="cls-1" transform="translate(557.24 127.48) rotate(50.55)">t</text><text class="cls-1" transform="translate(571.14 144.66) rotate(57.28)">e</text><text class="cls-1" transform="matrix(0.48, 0.88, -0.88, 0.48, 583.26, 163.51)">r</text><text class="cls-1" transform="translate(594.06 183.14) rotate(65.07)">.</text><text class="cls-1" transform="translate(603.52 203.46) rotate(68.86)"> </text></g></g></svg>