<svg xmlns="http://www.w3.org/2000/svg" viewBox="0 0 384.37 406.89"><defs><style>.cls-1,.cls-2{font-size:35px;font-style:italic;}.cls-1{fill:#231f20;font-family:TimesNewRomanPS-ItalicMT, Times New Roman;}.cls-2{fill:#f2cee2;font-family:TimesNewRomanPS-BoldItalicMT, Times New Roman;font-weight:700;}</style></defs><g id="Layer_2" data-name="Layer 2"><g id="Layer_1-2" data-name="Layer 1"><text class="cls-1" transform="translate(209.61 244.72) rotate(150.42)"> </text><text class="cls-1" transform="translate(205.19 248.19) rotate(-169.68)"> </text><text class="cls-1" transform="translate(199.88 247.25) rotate(-137.9)"> </text><text class="cls-1" transform="translate(196.74 243.21) rotate(-110.49)"> </text><text class="cls-1" transform="translate(194.97 237.94) rotate(-87.52)"> </text><text class="cls-1" transform="translate(194.93 231.56) rotate(-68.73)"> </text><text class="cls-1" transform="translate(197.46 224.55) rotate(-56.64)"> </text><text class="cls-1" transform="matrix(0.62, -0.78, 0.78, 0.62, 202.01, 217.69)"> </text><text class="cls-2" transform="translate(206.99 211.14) rotate(-46.09)"> </text><text class="cls-2" transform="translate(211.51 205.14) rotate(-31.91)">g</text><text class="cls-2" transform="translate(224.05 196.75) rotate(-5.86)">e</text><text class="cls-2" transform="matrix(0.97, 0.26, -0.26, 0.97, 237.43, 195.56)">t</text><text class="cls-2" transform="translate(245.48 197.54) rotate(29.35)">t</text><text class="cls-2" transform="matrix(0.73, 0.68, -0.68, 0.73, 252.83, 201.51)">i</text><text class="cls-2" transform="translate(259.45 206.29) rotate(61.25)">n</text><text class="cls-2" transform="translate(267.92 221.85) rotate(79.61)">g</text><text class="cls-2" transform="translate(270.52 238.11) rotate(89.97)"> </text><text class="cls-2" transform="translate(270.6 246.18) rotate(96.74)">l</text><text class="cls-2" transform="translate(270.06 254.91) rotate(107.28)">o</text><text class="cls-2" transform="translate(265.24 270.37) rotate(120.99)">s</text><text class="cls-2" transform="matrix(-0.68, 0.74, -0.74, -0.68, 258.79, 281.03)">t</text><text class="cls-2" transform="translate(252.84 287.53) rotate(142)"> </text><text class="cls-2" transform="translate(246.68 292.45) rotate(150.8)">i</text><text class="cls-2" transform="translate(239.51 297.16) rotate(163.43)">n</text><text class="cls-2" transform="translate(221.81 301.98) rotate(174.57)"> </text><text class="cls-2" transform="translate(214.03 303.12) rotate(-176.11)">p</text><text class="cls-2" transform="translate(197.55 302.02) rotate(-165.72)">a</text><text class="cls-2" transform="translate(181.39 297.89) rotate(-157.49)">g</text><text class="cls-2" transform="translate(165.85 291.47) rotate(-150.37)">e</text><text class="cls-2" transform="translate(153.03 284.27) rotate(-141.84)">s</text><text class="cls-2" transform="translate(143.01 276.31) rotate(-133.46)">,</text><text class="cls-2" transform="matrix(-0.59, -0.81, 0.81, -0.59, 137.46, 270.54)"> </text><text class="cls-2" transform="translate(132.5 264.56) rotate(-115.44)">g</text><text class="cls-2" transform="matrix(-0.23, -0.97, 0.97, -0.23, 125.51, 249.83)">e</text><text class="cls-2" transform="translate(122.3 235.5) rotate(-94.8)">t</text><text class="cls-2" transform="translate(121.5 226.41) rotate(-88.56)">t</text><text class="cls-2" transform="translate(121.71 217.3) rotate(-82.5)">i</text><text class="cls-2" transform="translate(122.5 208.4) rotate(-74.02)">n</text><text class="cls-2" transform="translate(127.67 190.56) rotate(-64.84)">g</text><text class="cls-2" transform="matrix(0.51, -0.86, 0.86, 0.51, 135.05, 175.33)"> </text><text class="cls-2" transform="matrix(0.56, -0.83, 0.83, 0.56, 139.32, 168.11)">l</text><text class="cls-2" transform="translate(144.4 160.36) rotate(-51.12)">o</text><text class="cls-2" transform="matrix(0.7, -0.72, 0.72, 0.7, 155.08, 147.17)">s</text><text class="cls-2" transform="translate(164.27 137.83) rotate(-40.62)">t</text><text class="cls-2" transform="translate(171.3 131.78) rotate(-35.95)"> </text><text class="cls-2" transform="matrix(0.88, -0.47, 0.47, 0.88, 177.56, 126.78)">o</text><text class="cls-2" transform="translate(191.85 118.84) rotate(-15.85)">n</text><text class="cls-2" transform="translate(209.81 114.12) rotate(-7.09)"> </text><text class="cls-2" transform="translate(218 113.07) rotate(-2.08)">l</text><text class="cls-2" transform="translate(227.11 112.52) rotate(4.14)">a</text><text class="cls-2" transform="translate(243.93 113.71) rotate(10.49)">n</text><text class="cls-2" transform="matrix(0.97, 0.25, -0.25, 0.97, 262.65, 117.26)">d</text><text class="cls-2" transform="translate(279.31 121.67) rotate(17.46)">,</text><text class="cls-2" transform="translate(287.12 123.9) rotate(23.62)"> </text><text class="cls-2" transform="translate(293.98 126.33) rotate(38.1)">g</text><text class="cls-2" transform="translate(306.53 135.86) rotate(55.54)">e</text><text class="cls-2" transform="translate(314.75 148.45) rotate(60.36)">t</text><text class="cls-2" transform="matrix(0.47, 0.88, -0.88, 0.47, 319.49, 156.79)">t</text><text class="cls-2" transform="translate(324.04 165.21) rotate(63.1)">i</text><text class="cls-2" transform="matrix(0.42, 0.91, -0.91, 0.42, 328.43, 173.63)">n</text><text class="cls-2" transform="translate(336.38 191.04) rotate(68.8)">g</text><text class="cls-2" transform="matrix(0.32, 0.95, -0.95, 0.32, 342.52, 207.12)"> </text><text class="cls-2" transform="translate(345.26 215.23) rotate(73.52)">l</text><text class="cls-2" transform="translate(348.04 224.19) rotate(76.8)">o</text><text class="cls-2" transform="matrix(0.16, 0.99, -0.99, 0.16, 351.9, 240.85)">s</text><text class="cls-2" transform="translate(353.95 253.98) rotate(84.36)">t</text><text class="cls-2" transform="translate(354.87 263.35) rotate(87.21)"> </text><text class="cls-2" transform="matrix(0, 1, -1, 0, 355.3, 271.81)">i</text><text class="cls-2" transform="translate(355.51 281.03) rotate(95.23)">n</text><text class="cls-2" transform="translate(353.61 299.84) rotate(100.9)"> </text><text class="cls-2" transform="translate(352.18 307.85) rotate(106.98)">t</text><text class="cls-2" transform="translate(350.49 316.09) rotate(121.71)">h</text><text class="cls-2" transform="translate(341.4 330.81) rotate(143.26)">e</text><text class="cls-2" transform="matrix(-0.9, 0.45, -0.45, -0.9, 329.55, 339.08)"> </text><text class="cls-2" transform="translate(321.84 342.82) rotate(155.24)">c</text><text class="cls-2" transform="translate(307.84 349.31) rotate(156.18)">o</text><text class="cls-2" transform="matrix(-0.93, 0.36, -0.36, -0.93, 292.12, 356.44)">m</text><text class="cls-2" transform="translate(267.07 366.04) rotate(162.85)">p</text><text class="cls-2" transform="translate(250.81 371.15) rotate(167.35)">u</text><text class="cls-2" transform="matrix(-0.99, 0.15, -0.15, -0.99, 232.22, 375.16)">t</text><text class="cls-2" transform="translate(222.99 376.65) rotate(175.54)">e</text><text class="cls-2" transform="translate(207.94 377.8) rotate(179.97)">r</text><text class="cls-2" transform="translate(196.54 377.8) rotate(-177.31)">,</text><text class="cls-2" transform="matrix(-1, -0.09, 0.09, -1, 188.02, 377.4)"> </text><text class="cls-2" transform="translate(179.75 377.06) rotate(-169.86)">m</text><text class="cls-2" transform="translate(153.57 372.15) rotate(-164.09)">a</text><text class="cls-2" transform="translate(137.15 367.48) rotate(-159.82)">k</text><text class="cls-2" transform="translate(121.05 361.46) rotate(-156.61)">i</text><text class="cls-2" transform="translate(112.38 357.87) rotate(-153.28)">n</text><text class="cls-2" transform="translate(95.36 349.28) rotate(-149.14)">g</text><text class="cls-2" transform="matrix(-0.83, -0.56, 0.56, -0.83, 80.67, 340.39)"> </text><text class="cls-2" transform="translate(73.53 336.27) rotate(-140.09)">m</text><text class="cls-2" transform="translate(53.6 319.32) rotate(-129.25)">a</text><text class="cls-2" transform="matrix(-0.48, -0.88, 0.88, -0.48, 43.14, 306.6)">c</text><text class="cls-2" transform="translate(35.95 294.08) rotate(-107.03)">h</text><text class="cls-2" transform="translate(30.82 276.21) rotate(-98.28)">i</text><text class="cls-2" transform="translate(29.17 267.37) rotate(-90.51)">n</text><text class="cls-2" transform="matrix(0.14, -0.99, 0.99, 0.14, 29.12, 248.73)">e</text><text class="cls-2" transform="translate(31.17 233.97) rotate(-75.87)">s</text><text class="cls-2" transform="matrix(0.31, -0.95, 0.95, 0.31, 34.48, 221.16)"> </text><text class="cls-2" transform="translate(37.06 213.15) rotate(-68.59)">f</text><text class="cls-2" transform="matrix(0.43, -0.9, 0.9, 0.43, 41.1, 202.62)">o</text><text class="cls-2" transform="matrix(0.48, -0.88, 0.88, 0.48, 48.49, 187.12)">r</text><text class="cls-2" transform="matrix(0.5, -0.87, 0.87, 0.5, 54.93, 175.3)"> </text><text class="cls-2" transform="matrix(0.52, -0.85, 0.85, 0.52, 59.16, 167.81)">h</text><text class="cls-2" transform="translate(69.14 151.48) rotate(-55.18)">o</text><text class="cls-2" transform="translate(79.01 137.43) rotate(-51.77)">l</text><text class="cls-2" transform="translate(84.64 130.03) rotate(-47.65)">d</text><text class="cls-2" transform="translate(96.27 117.47) rotate(-43.72)">i</text><text class="cls-2" transform="matrix(0.77, -0.64, 0.64, 0.77, 102.92, 110.89)">n</text><text class="cls-2" transform="translate(117.55 98.66) rotate(-36.1)">g</text><text class="cls-2" transform="matrix(0.83, -0.56, 0.56, 0.83, 131.57, 88.55)"> </text><text class="cls-2" transform="translate(138.72 83.75) rotate(-32.51)">l</text><text class="cls-2" transform="matrix(0.86, -0.51, 0.51, 0.86, 146.75, 78.57)">o</text><text class="cls-2" transform="translate(161.67 69.67) rotate(-29.66)">s</text><text class="cls-2" transform="translate(173.45 62.98) rotate(-28.93)">t</text><text class="cls-2" transform="translate(181.79 58.27) rotate(-27.47)">n</text><text class="cls-2" transform="translate(198.83 49.43) rotate(-24.79)">e</text><text class="cls-2" transform="matrix(0.93, -0.37, 0.37, 0.93, 212.66, 43.05)">s</text><text class="cls-2" transform="translate(224.98 38.1) rotate(-18.22)">s</text><text class="cls-2" transform="matrix(0.97, -0.26, 0.26, 0.97, 237.61, 34)">.</text><text class="cls-2" transform="translate(245.77 31.83) rotate(-11.82)">.</text><text class="cls-2" transform="translate(254 30.1) rotate(-8.56)">.</text></g></g></svg>